<svg xmlns="http://www.w3.org/2000/svg" width="820" height="430" viewBox="0 0 820 430" role="img">
<rect x="0" y="0" width="820" height="430" fill="#ffffff"/>
<style>text{font-family:Arial,Helvetica,sans-serif;fill:#111827}.title{font-size:18px;font-weight:700}.subtitle{font-size:12px;fill:#6b7280}.axis{stroke:#4b5563;stroke-width:1}.grid{stroke:#e5e7eb;stroke-width:1}.label{font-size:12px}.small{font-size:11px}.value{font-size:11px;font-weight:700}.panel{font-size:14px;font-weight:700}</style>
<text x="30.0" y="34.0" class="title" text-anchor="start">V2 Validation Split Sensitivity</text>
<text x="30.0" y="54.0" class="subtitle" text-anchor="start">Mean validation MCC across split seeds 42, 43, and 44. Error bars show +/- 1 SD.</text>
<text x="45.0" y="90.0" class="panel" text-anchor="start">Validation split strategy</text>
<line x1="100.0" y1="320.0" x2="748.0" y2="320.0" class="grid" />
<text x="92.0" y="324.0" class="small" text-anchor="end">0.00</text>
<line x1="100.0" y1="216.0" x2="748.0" y2="216.0" class="grid" />
<text x="92.0" y="220.0" class="small" text-anchor="end">0.29</text>
<line x1="100.0" y1="112.0" x2="748.0" y2="112.0" class="grid" />
<text x="92.0" y="116.0" class="small" text-anchor="end">0.58</text>
<line x1="100.0" y1="112.0" x2="100.0" y2="320.0" class="axis" />
<line x1="100.0" y1="320.0" x2="748.0" y2="320.0" class="axis" />
<text x="55.0" y="216.0" class="small" text-anchor="middle" transform="rotate(-90 55.0 216.0)">Validation MCC</text>
<rect x="172.0" y="238.5" width="72.0" height="81.5" fill="#2563eb" stroke="#1f2937" stroke-width="0.5"/>
<line x1="208.0" y1="238.5" x2="208.0" y2="212.4" class="axis" />
<line x1="199.0" y1="212.4" x2="217.0" y2="212.4" class="axis" />
<text x="208.0" y="204.4" class="value" text-anchor="middle">0.227</text>
<text x="208.0" y="338.0" class="small" text-anchor="middle">code</text>
<text x="208.0" y="350.0" class="small" text-anchor="middle">group</text>
<text x="208.0" y="362.0" class="small" text-anchor="middle">random</text>
<rect x="388.0" y="237.7" width="72.0" height="82.3" fill="#d97706" stroke="#1f2937" stroke-width="0.5"/>
<line x1="424.0" y1="237.7" x2="424.0" y2="225.9" class="axis" />
<line x1="415.0" y1="225.9" x2="433.0" y2="225.9" class="axis" />
<text x="424.0" y="217.9" class="value" text-anchor="middle">0.230</text>
<text x="424.0" y="338.0" class="small" text-anchor="middle">family</text>
<text x="424.0" y="350.0" class="small" text-anchor="middle">stratified</text>
<text x="424.0" y="362.0" class="small" text-anchor="middle">code</text>
<rect x="604.0" y="179.6" width="72.0" height="140.4" fill="#4d7c0f" stroke="#1f2937" stroke-width="0.5"/>
<line x1="640.0" y1="179.6" x2="640.0" y2="131.2" class="axis" />
<line x1="631.0" y1="131.2" x2="649.0" y2="131.2" class="axis" />
<text x="640.0" y="123.2" class="value" text-anchor="middle">0.391</text>
<text x="640.0" y="338.0" class="small" text-anchor="middle">family</text>
<text x="640.0" y="350.0" class="small" text-anchor="middle">abundance</text>
<text x="640.0" y="362.0" class="small" text-anchor="middle">stratified</text>
<text x="640.0" y="374.0" class="small" text-anchor="middle">code</text>
<text x="30.0" y="405.0" class="subtitle" text-anchor="start">Source: sequential_binary_followup_v2/validation_sensitivity_summary.csv.</text>
</svg>
